<mxfile host="Electron" agent="Mozilla/5.0 (Windows NT 10.0; Win64; x64) AppleWebKit/537.36 (KHTML, like Gecko) draw.io/27.0.2 Chrome/134.0.6998.205 Electron/35.3.0 Safari/537.36" version="27.0.2">
  <diagram name="Page-1" id="2tH7alJDCbWEVbSXcnNB">
    <mxGraphModel dx="1892" dy="1726" grid="1" gridSize="10" guides="1" tooltips="1" connect="1" arrows="1" fold="1" page="1" pageScale="1" pageWidth="850" pageHeight="1100" math="0" shadow="0">
      <root>
        <mxCell id="0" />
        <mxCell id="1" parent="0" />
        <mxCell id="jY0GuPQgjIEu2X1MpC6s-1" value="" style="rounded=0;whiteSpace=wrap;html=1;" vertex="1" parent="1">
          <mxGeometry x="50" y="60" width="120" height="60" as="geometry" />
        </mxCell>
        <mxCell id="jY0GuPQgjIEu2X1MpC6s-2" value="User(Sender)" style="text;html=1;align=center;verticalAlign=middle;whiteSpace=wrap;rounded=0;" vertex="1" parent="1">
          <mxGeometry x="70" y="75" width="80" height="30" as="geometry" />
        </mxCell>
        <mxCell id="jY0GuPQgjIEu2X1MpC6s-3" value="" style="rounded=0;whiteSpace=wrap;html=1;" vertex="1" parent="1">
          <mxGeometry x="340" y="280" width="120" height="60" as="geometry" />
        </mxCell>
        <mxCell id="jY0GuPQgjIEu2X1MpC6s-4" value="System" style="text;html=1;align=center;verticalAlign=middle;whiteSpace=wrap;rounded=0;" vertex="1" parent="1">
          <mxGeometry x="370" y="295" width="60" height="30" as="geometry" />
        </mxCell>
        <mxCell id="jY0GuPQgjIEu2X1MpC6s-5" value="" style="rounded=0;whiteSpace=wrap;html=1;" vertex="1" parent="1">
          <mxGeometry x="640" y="60" width="120" height="60" as="geometry" />
        </mxCell>
        <mxCell id="jY0GuPQgjIEu2X1MpC6s-6" value="User(Receiver)" style="text;html=1;align=center;verticalAlign=middle;whiteSpace=wrap;rounded=0;" vertex="1" parent="1">
          <mxGeometry x="655" y="75" width="90" height="30" as="geometry" />
        </mxCell>
        <mxCell id="jY0GuPQgjIEu2X1MpC6s-7" value="" style="endArrow=none;html=1;rounded=0;entryX=1;entryY=1;entryDx=0;entryDy=0;exitX=0;exitY=0;exitDx=0;exitDy=0;" edge="1" parent="1" source="jY0GuPQgjIEu2X1MpC6s-3" target="jY0GuPQgjIEu2X1MpC6s-1">
          <mxGeometry width="50" height="50" relative="1" as="geometry">
            <mxPoint x="220" y="260" as="sourcePoint" />
            <mxPoint x="270" y="210" as="targetPoint" />
          </mxGeometry>
        </mxCell>
        <mxCell id="jY0GuPQgjIEu2X1MpC6s-8" value="" style="endArrow=classic;html=1;rounded=0;" edge="1" parent="1">
          <mxGeometry width="50" height="50" relative="1" as="geometry">
            <mxPoint x="260" y="170" as="sourcePoint" />
            <mxPoint x="290" y="200" as="targetPoint" />
          </mxGeometry>
        </mxCell>
        <mxCell id="jY0GuPQgjIEu2X1MpC6s-9" value="&lt;span style=&quot;text-wrap-mode: nowrap;&quot;&gt;1.1.1: send message&lt;/span&gt;&lt;div style=&quot;text-wrap-mode: nowrap;&quot;&gt;(&lt;span style=&quot;background-color: transparent; color: light-dark(rgb(0, 0, 0), rgb(255, 255, 255));&quot;&gt;receiver ID, message contant)&lt;/span&gt;&lt;/div&gt;" style="text;html=1;align=center;verticalAlign=middle;whiteSpace=wrap;rounded=0;" vertex="1" parent="1">
          <mxGeometry x="270" y="150" width="180" height="30" as="geometry" />
        </mxCell>
        <mxCell id="jY0GuPQgjIEu2X1MpC6s-10" value="" style="endArrow=none;html=1;rounded=0;entryX=0;entryY=0.75;entryDx=0;entryDy=0;edgeStyle=orthogonalEdgeStyle;curved=1;exitX=0.25;exitY=1;exitDx=0;exitDy=0;" edge="1" parent="1" source="jY0GuPQgjIEu2X1MpC6s-3" target="jY0GuPQgjIEu2X1MpC6s-3">
          <mxGeometry width="50" height="50" relative="1" as="geometry">
            <mxPoint x="290" y="430" as="sourcePoint" />
            <mxPoint x="340" y="380" as="targetPoint" />
            <Array as="points">
              <mxPoint x="370" y="390" />
              <mxPoint x="310" y="390" />
              <mxPoint x="310" y="325" />
            </Array>
          </mxGeometry>
        </mxCell>
        <mxCell id="jY0GuPQgjIEu2X1MpC6s-11" value="" style="endArrow=classic;html=1;rounded=0;" edge="1" parent="1">
          <mxGeometry width="50" height="50" relative="1" as="geometry">
            <mxPoint x="290" y="370" as="sourcePoint" />
            <mxPoint x="320" y="400" as="targetPoint" />
          </mxGeometry>
        </mxCell>
        <mxCell id="jY0GuPQgjIEu2X1MpC6s-12" value="&lt;span style=&quot;text-wrap-mode: nowrap;&quot;&gt;1.1.2: validate and&amp;nbsp;&lt;/span&gt;&lt;div style=&quot;text-wrap-mode: nowrap;&quot;&gt;save message&lt;/div&gt;&lt;div style=&quot;text-wrap-mode: nowrap;&quot;&gt;&amp;nbsp;to database&lt;/div&gt;" style="text;html=1;align=center;verticalAlign=middle;whiteSpace=wrap;rounded=0;" vertex="1" parent="1">
          <mxGeometry x="210" y="380" width="90" height="50" as="geometry" />
        </mxCell>
        <mxCell id="jY0GuPQgjIEu2X1MpC6s-13" value="" style="endArrow=none;html=1;rounded=0;entryX=0;entryY=1;entryDx=0;entryDy=0;exitX=1;exitY=0;exitDx=0;exitDy=0;" edge="1" parent="1" source="jY0GuPQgjIEu2X1MpC6s-3" target="jY0GuPQgjIEu2X1MpC6s-5">
          <mxGeometry width="50" height="50" relative="1" as="geometry">
            <mxPoint x="550" y="260" as="sourcePoint" />
            <mxPoint x="600" y="210" as="targetPoint" />
          </mxGeometry>
        </mxCell>
        <mxCell id="jY0GuPQgjIEu2X1MpC6s-14" value="" style="endArrow=classic;html=1;rounded=0;" edge="1" parent="1">
          <mxGeometry width="50" height="50" relative="1" as="geometry">
            <mxPoint x="620" y="120" as="sourcePoint" />
            <mxPoint x="580" y="160" as="targetPoint" />
          </mxGeometry>
        </mxCell>
        <mxCell id="jY0GuPQgjIEu2X1MpC6s-15" value="&lt;span style=&quot;text-wrap-mode: nowrap;&quot;&gt;1.1.3: request inbox / new message&lt;/span&gt;" style="text;html=1;align=center;verticalAlign=middle;whiteSpace=wrap;rounded=0;" vertex="1" parent="1">
          <mxGeometry x="440" y="105" width="160" height="30" as="geometry" />
        </mxCell>
        <mxCell id="jY0GuPQgjIEu2X1MpC6s-16" value="" style="endArrow=none;html=1;rounded=0;entryX=0.5;entryY=1;entryDx=0;entryDy=0;edgeStyle=orthogonalEdgeStyle;curved=1;exitX=1;exitY=1;exitDx=0;exitDy=0;" edge="1" parent="1" source="jY0GuPQgjIEu2X1MpC6s-3" target="jY0GuPQgjIEu2X1MpC6s-3">
          <mxGeometry width="50" height="50" relative="1" as="geometry">
            <mxPoint x="460" y="450" as="sourcePoint" />
            <mxPoint x="510" y="400" as="targetPoint" />
            <Array as="points">
              <mxPoint x="460" y="400" />
              <mxPoint x="400" y="400" />
            </Array>
          </mxGeometry>
        </mxCell>
        <mxCell id="jY0GuPQgjIEu2X1MpC6s-17" value="" style="endArrow=classic;html=1;rounded=0;" edge="1" parent="1">
          <mxGeometry width="50" height="50" relative="1" as="geometry">
            <mxPoint x="410" y="410" as="sourcePoint" />
            <mxPoint x="450" y="410" as="targetPoint" />
          </mxGeometry>
        </mxCell>
        <mxCell id="jY0GuPQgjIEu2X1MpC6s-18" value="&lt;span style=&quot;text-wrap-mode: nowrap;&quot;&gt;1.1.4: bring message&amp;nbsp;&lt;/span&gt;&lt;div style=&quot;text-wrap-mode: nowrap;&quot;&gt;for receiver&lt;/div&gt;" style="text;html=1;align=center;verticalAlign=middle;whiteSpace=wrap;rounded=0;" vertex="1" parent="1">
          <mxGeometry x="400" y="420" width="80" height="40" as="geometry" />
        </mxCell>
        <mxCell id="jY0GuPQgjIEu2X1MpC6s-19" value="" style="endArrow=none;html=1;rounded=0;exitX=1;exitY=0.25;exitDx=0;exitDy=0;entryX=0.25;entryY=1;entryDx=0;entryDy=0;" edge="1" parent="1" source="jY0GuPQgjIEu2X1MpC6s-3" target="jY0GuPQgjIEu2X1MpC6s-5">
          <mxGeometry width="50" height="50" relative="1" as="geometry">
            <mxPoint x="560" y="330" as="sourcePoint" />
            <mxPoint x="610" y="280" as="targetPoint" />
          </mxGeometry>
        </mxCell>
        <mxCell id="jY0GuPQgjIEu2X1MpC6s-20" value="" style="endArrow=classic;html=1;rounded=0;" edge="1" parent="1">
          <mxGeometry width="50" height="50" relative="1" as="geometry">
            <mxPoint x="540" y="250" as="sourcePoint" />
            <mxPoint x="580" y="220" as="targetPoint" />
          </mxGeometry>
        </mxCell>
        <mxCell id="jY0GuPQgjIEu2X1MpC6s-21" value="&lt;span style=&quot;text-wrap-mode: nowrap;&quot;&gt;1.1.5: return list of message&lt;/span&gt;" style="text;html=1;align=center;verticalAlign=middle;whiteSpace=wrap;rounded=0;" vertex="1" parent="1">
          <mxGeometry x="560" y="230" width="120" height="40" as="geometry" />
        </mxCell>
        <mxCell id="jY0GuPQgjIEu2X1MpC6s-22" value="" style="rounded=0;whiteSpace=wrap;html=1;" vertex="1" parent="1">
          <mxGeometry x="640" y="-150" width="120" height="60" as="geometry" />
        </mxCell>
        <mxCell id="jY0GuPQgjIEu2X1MpC6s-23" value="System" style="text;html=1;align=center;verticalAlign=middle;whiteSpace=wrap;rounded=0;" vertex="1" parent="1">
          <mxGeometry x="670" y="-135" width="60" height="30" as="geometry" />
        </mxCell>
        <mxCell id="jY0GuPQgjIEu2X1MpC6s-24" value="" style="endArrow=none;html=1;rounded=0;exitX=0.75;exitY=0;exitDx=0;exitDy=0;entryX=0.75;entryY=1;entryDx=0;entryDy=0;" edge="1" parent="1" source="jY0GuPQgjIEu2X1MpC6s-5" target="jY0GuPQgjIEu2X1MpC6s-22">
          <mxGeometry width="50" height="50" relative="1" as="geometry">
            <mxPoint x="710" as="sourcePoint" />
            <mxPoint x="760" y="-50" as="targetPoint" />
          </mxGeometry>
        </mxCell>
        <mxCell id="jY0GuPQgjIEu2X1MpC6s-25" value="" style="endArrow=classic;html=1;rounded=0;" edge="1" parent="1">
          <mxGeometry width="50" height="50" relative="1" as="geometry">
            <mxPoint x="745" y="10" as="sourcePoint" />
            <mxPoint x="745" y="-30" as="targetPoint" />
          </mxGeometry>
        </mxCell>
        <mxCell id="jY0GuPQgjIEu2X1MpC6s-26" value="&lt;span style=&quot;text-wrap-mode: nowrap;&quot;&gt;2.1.1: request delivery stataus for gift&lt;/span&gt;" style="text;html=1;align=center;verticalAlign=middle;whiteSpace=wrap;rounded=0;" vertex="1" parent="1">
          <mxGeometry x="760" y="-20" width="180" height="30" as="geometry" />
        </mxCell>
        <mxCell id="jY0GuPQgjIEu2X1MpC6s-27" value="" style="endArrow=none;html=1;rounded=0;exitX=1;exitY=1;exitDx=0;exitDy=0;edgeStyle=orthogonalEdgeStyle;curved=1;entryX=1;entryY=0.5;entryDx=0;entryDy=0;" edge="1" parent="1" source="jY0GuPQgjIEu2X1MpC6s-22" target="jY0GuPQgjIEu2X1MpC6s-22">
          <mxGeometry width="50" height="50" relative="1" as="geometry">
            <mxPoint x="800" y="-50" as="sourcePoint" />
            <mxPoint x="850" y="-100" as="targetPoint" />
            <Array as="points">
              <mxPoint x="760" y="-80" />
              <mxPoint x="830" y="-80" />
              <mxPoint x="830" y="-120" />
            </Array>
          </mxGeometry>
        </mxCell>
        <mxCell id="jY0GuPQgjIEu2X1MpC6s-28" value="" style="endArrow=classic;html=1;rounded=0;" edge="1" parent="1">
          <mxGeometry width="50" height="50" relative="1" as="geometry">
            <mxPoint x="840" y="-80" as="sourcePoint" />
            <mxPoint x="840" y="-120" as="targetPoint" />
          </mxGeometry>
        </mxCell>
        <mxCell id="jY0GuPQgjIEu2X1MpC6s-29" value="&lt;span style=&quot;text-wrap-mode: nowrap;&quot;&gt;2.1.2: bring delivery status&lt;/span&gt;&lt;div style=&quot;text-wrap-mode: nowrap;&quot;&gt;from database&lt;/div&gt;" style="text;html=1;align=center;verticalAlign=middle;whiteSpace=wrap;rounded=0;" vertex="1" parent="1">
          <mxGeometry x="860" y="-110" width="120" height="30" as="geometry" />
        </mxCell>
        <mxCell id="jY0GuPQgjIEu2X1MpC6s-30" value="" style="endArrow=none;html=1;rounded=0;entryX=0.5;entryY=1;entryDx=0;entryDy=0;exitX=0.5;exitY=0;exitDx=0;exitDy=0;" edge="1" parent="1" source="jY0GuPQgjIEu2X1MpC6s-5" target="jY0GuPQgjIEu2X1MpC6s-22">
          <mxGeometry width="50" height="50" relative="1" as="geometry">
            <mxPoint x="600" y="30" as="sourcePoint" />
            <mxPoint x="650" y="-20" as="targetPoint" />
          </mxGeometry>
        </mxCell>
        <mxCell id="jY0GuPQgjIEu2X1MpC6s-31" value="" style="endArrow=classic;html=1;rounded=0;" edge="1" parent="1">
          <mxGeometry width="50" height="50" relative="1" as="geometry">
            <mxPoint x="680" y="-30" as="sourcePoint" />
            <mxPoint x="680" y="10" as="targetPoint" />
          </mxGeometry>
        </mxCell>
        <mxCell id="jY0GuPQgjIEu2X1MpC6s-32" value="&lt;span style=&quot;text-wrap-mode: nowrap;&quot;&gt;2.1.3: return current delivery status&lt;/span&gt;" style="text;html=1;align=center;verticalAlign=middle;whiteSpace=wrap;rounded=0;" vertex="1" parent="1">
          <mxGeometry x="500" y="-20" width="160" height="30" as="geometry" />
        </mxCell>
        <mxCell id="jY0GuPQgjIEu2X1MpC6s-33" value="" style="rounded=0;whiteSpace=wrap;html=1;" vertex="1" parent="1">
          <mxGeometry x="830" y="380" width="120" height="60" as="geometry" />
        </mxCell>
        <mxCell id="jY0GuPQgjIEu2X1MpC6s-34" value="System" style="text;html=1;align=center;verticalAlign=middle;whiteSpace=wrap;rounded=0;" vertex="1" parent="1">
          <mxGeometry x="860" y="395" width="60" height="30" as="geometry" />
        </mxCell>
        <mxCell id="jY0GuPQgjIEu2X1MpC6s-35" value="" style="endArrow=none;html=1;rounded=0;entryX=1;entryY=1;entryDx=0;entryDy=0;exitX=0;exitY=0;exitDx=0;exitDy=0;" edge="1" parent="1" source="jY0GuPQgjIEu2X1MpC6s-33" target="jY0GuPQgjIEu2X1MpC6s-5">
          <mxGeometry width="50" height="50" relative="1" as="geometry">
            <mxPoint x="760" y="290" as="sourcePoint" />
            <mxPoint x="810" y="240" as="targetPoint" />
          </mxGeometry>
        </mxCell>
        <mxCell id="jY0GuPQgjIEu2X1MpC6s-36" value="" style="endArrow=classic;html=1;rounded=0;" edge="1" parent="1">
          <mxGeometry width="50" height="50" relative="1" as="geometry">
            <mxPoint x="800" y="230" as="sourcePoint" />
            <mxPoint x="820" y="270" as="targetPoint" />
          </mxGeometry>
        </mxCell>
        <mxCell id="jY0GuPQgjIEu2X1MpC6s-37" value="&lt;span style=&quot;text-wrap-mode: nowrap;&quot;&gt;3.1.1: request to delete gift&lt;/span&gt;" style="text;html=1;align=center;verticalAlign=middle;whiteSpace=wrap;rounded=0;" vertex="1" parent="1">
          <mxGeometry x="817.5" y="230" width="145" height="30" as="geometry" />
        </mxCell>
        <mxCell id="jY0GuPQgjIEu2X1MpC6s-38" value="" style="endArrow=none;html=1;rounded=0;exitX=0.25;exitY=0;exitDx=0;exitDy=0;edgeStyle=orthogonalEdgeStyle;curved=1;entryX=0.75;entryY=0;entryDx=0;entryDy=0;" edge="1" parent="1" source="jY0GuPQgjIEu2X1MpC6s-33" target="jY0GuPQgjIEu2X1MpC6s-33">
          <mxGeometry width="50" height="50" relative="1" as="geometry">
            <mxPoint x="950" y="290" as="sourcePoint" />
            <mxPoint x="940" y="260" as="targetPoint" />
            <Array as="points">
              <mxPoint x="860" y="330" />
              <mxPoint x="920" y="330" />
            </Array>
          </mxGeometry>
        </mxCell>
        <mxCell id="jY0GuPQgjIEu2X1MpC6s-39" value="" style="endArrow=classic;html=1;rounded=0;" edge="1" parent="1">
          <mxGeometry width="50" height="50" relative="1" as="geometry">
            <mxPoint x="860" y="320" as="sourcePoint" />
            <mxPoint x="910" y="320" as="targetPoint" />
          </mxGeometry>
        </mxCell>
        <mxCell id="jY0GuPQgjIEu2X1MpC6s-40" value="&lt;span style=&quot;text-wrap-mode: nowrap;&quot;&gt;3.1.2: validation gift&lt;/span&gt;&lt;div style=&quot;text-wrap-mode: nowrap;&quot;&gt;exist&lt;/div&gt;" style="text;html=1;align=center;verticalAlign=middle;whiteSpace=wrap;rounded=0;" vertex="1" parent="1">
          <mxGeometry x="860" y="280" width="60" height="30" as="geometry" />
        </mxCell>
        <mxCell id="jY0GuPQgjIEu2X1MpC6s-41" value="" style="endArrow=none;html=1;rounded=0;exitX=0.75;exitY=0;exitDx=0;exitDy=0;edgeStyle=orthogonalEdgeStyle;curved=1;entryX=1;entryY=0.25;entryDx=0;entryDy=0;" edge="1" parent="1" source="jY0GuPQgjIEu2X1MpC6s-33" target="jY0GuPQgjIEu2X1MpC6s-33">
          <mxGeometry width="50" height="50" relative="1" as="geometry">
            <mxPoint x="1040" y="340" as="sourcePoint" />
            <mxPoint x="1110" y="280" as="targetPoint" />
            <Array as="points">
              <mxPoint x="920" y="330" />
              <mxPoint x="1000" y="330" />
              <mxPoint x="1000" y="395" />
            </Array>
          </mxGeometry>
        </mxCell>
        <mxCell id="jY0GuPQgjIEu2X1MpC6s-42" value="" style="endArrow=classic;html=1;rounded=0;" edge="1" parent="1">
          <mxGeometry width="50" height="50" relative="1" as="geometry">
            <mxPoint x="980" y="315" as="sourcePoint" />
            <mxPoint x="1010" y="345" as="targetPoint" />
          </mxGeometry>
        </mxCell>
        <mxCell id="jY0GuPQgjIEu2X1MpC6s-43" value="&lt;span style=&quot;text-wrap-mode: nowrap;&quot;&gt;3.1.3: delete gift from&amp;nbsp;&lt;/span&gt;&lt;div style=&quot;text-wrap-mode: nowrap;&quot;&gt;database&lt;/div&gt;" style="text;html=1;align=center;verticalAlign=middle;whiteSpace=wrap;rounded=0;" vertex="1" parent="1">
          <mxGeometry x="990" y="300" width="90" height="30" as="geometry" />
        </mxCell>
        <mxCell id="jY0GuPQgjIEu2X1MpC6s-44" value="" style="endArrow=none;html=1;rounded=0;entryX=1;entryY=0.5;entryDx=0;entryDy=0;edgeStyle=orthogonalEdgeStyle;curved=1;exitX=0.75;exitY=1;exitDx=0;exitDy=0;" edge="1" parent="1" source="jY0GuPQgjIEu2X1MpC6s-33" target="jY0GuPQgjIEu2X1MpC6s-33">
          <mxGeometry width="50" height="50" relative="1" as="geometry">
            <mxPoint x="1010" y="520" as="sourcePoint" />
            <mxPoint x="1060" y="470" as="targetPoint" />
            <Array as="points">
              <mxPoint x="920" y="480" />
              <mxPoint x="990" y="480" />
              <mxPoint x="990" y="410" />
            </Array>
          </mxGeometry>
        </mxCell>
        <mxCell id="jY0GuPQgjIEu2X1MpC6s-45" value="" style="endArrow=classic;html=1;rounded=0;" edge="1" parent="1">
          <mxGeometry width="50" height="50" relative="1" as="geometry">
            <mxPoint x="1010" y="450" as="sourcePoint" />
            <mxPoint x="990" y="480" as="targetPoint" />
          </mxGeometry>
        </mxCell>
        <mxCell id="jY0GuPQgjIEu2X1MpC6s-46" value="&lt;span style=&quot;text-wrap-mode: nowrap;&quot;&gt;3.1.4: update gift listings&lt;/span&gt;" style="text;html=1;align=center;verticalAlign=middle;whiteSpace=wrap;rounded=0;" vertex="1" parent="1">
          <mxGeometry x="1010" y="460" width="110" height="30" as="geometry" />
        </mxCell>
        <mxCell id="jY0GuPQgjIEu2X1MpC6s-47" value="" style="endArrow=none;html=1;rounded=0;entryX=0;entryY=0.5;entryDx=0;entryDy=0;exitX=0.75;exitY=1;exitDx=0;exitDy=0;" edge="1" parent="1" source="jY0GuPQgjIEu2X1MpC6s-5" target="jY0GuPQgjIEu2X1MpC6s-33">
          <mxGeometry width="50" height="50" relative="1" as="geometry">
            <mxPoint x="810" y="400" as="sourcePoint" />
            <mxPoint x="860" y="350" as="targetPoint" />
          </mxGeometry>
        </mxCell>
        <mxCell id="jY0GuPQgjIEu2X1MpC6s-48" value="" style="endArrow=classic;html=1;rounded=0;" edge="1" parent="1">
          <mxGeometry width="50" height="50" relative="1" as="geometry">
            <mxPoint x="780" y="300" as="sourcePoint" />
            <mxPoint x="760" y="260" as="targetPoint" />
            <Array as="points">
              <mxPoint x="770" y="280" />
            </Array>
          </mxGeometry>
        </mxCell>
        <mxCell id="jY0GuPQgjIEu2X1MpC6s-49" value="&lt;span style=&quot;text-wrap-mode: nowrap;&quot;&gt;3.1.5: gift listings deleted successfully&lt;/span&gt;" style="text;html=1;align=center;verticalAlign=middle;whiteSpace=wrap;rounded=0;" vertex="1" parent="1">
          <mxGeometry x="580" y="280" width="180" height="30" as="geometry" />
        </mxCell>
        <mxCell id="jY0GuPQgjIEu2X1MpC6s-50" value="" style="rounded=0;whiteSpace=wrap;html=1;" vertex="1" parent="1">
          <mxGeometry x="1190" y="60" width="120" height="60" as="geometry" />
        </mxCell>
        <mxCell id="jY0GuPQgjIEu2X1MpC6s-51" value="System" style="text;html=1;align=center;verticalAlign=middle;whiteSpace=wrap;rounded=0;" vertex="1" parent="1">
          <mxGeometry x="1220" y="75" width="60" height="30" as="geometry" />
        </mxCell>
        <mxCell id="jY0GuPQgjIEu2X1MpC6s-53" value="" style="endArrow=none;html=1;rounded=0;exitX=1;exitY=0.25;exitDx=0;exitDy=0;entryX=0;entryY=0.25;entryDx=0;entryDy=0;" edge="1" parent="1" source="jY0GuPQgjIEu2X1MpC6s-5" target="jY0GuPQgjIEu2X1MpC6s-50">
          <mxGeometry width="50" height="50" relative="1" as="geometry">
            <mxPoint x="830" y="100" as="sourcePoint" />
            <mxPoint x="880" y="50" as="targetPoint" />
          </mxGeometry>
        </mxCell>
        <mxCell id="jY0GuPQgjIEu2X1MpC6s-54" value="" style="endArrow=classic;html=1;rounded=0;" edge="1" parent="1">
          <mxGeometry width="50" height="50" relative="1" as="geometry">
            <mxPoint x="920" y="60" as="sourcePoint" />
            <mxPoint x="970" y="60" as="targetPoint" />
          </mxGeometry>
        </mxCell>
        <mxCell id="jY0GuPQgjIEu2X1MpC6s-55" value="&lt;span style=&quot;text-wrap-mode: nowrap;&quot;&gt;4.1.1: request to delete account&lt;/span&gt;" style="text;html=1;align=center;verticalAlign=middle;whiteSpace=wrap;rounded=0;" vertex="1" parent="1">
          <mxGeometry x="870" y="30" width="160" height="30" as="geometry" />
        </mxCell>
        <mxCell id="jY0GuPQgjIEu2X1MpC6s-56" value="" style="endArrow=none;html=1;rounded=0;exitX=0.75;exitY=0;exitDx=0;exitDy=0;edgeStyle=orthogonalEdgeStyle;curved=1;entryX=1;entryY=0.25;entryDx=0;entryDy=0;" edge="1" parent="1" source="jY0GuPQgjIEu2X1MpC6s-50" target="jY0GuPQgjIEu2X1MpC6s-50">
          <mxGeometry width="50" height="50" relative="1" as="geometry">
            <mxPoint x="1230" y="20" as="sourcePoint" />
            <mxPoint x="1390" y="-10" as="targetPoint" />
            <Array as="points">
              <mxPoint x="1280" y="10" />
              <mxPoint x="1360" y="10" />
              <mxPoint x="1360" y="75" />
            </Array>
          </mxGeometry>
        </mxCell>
        <mxCell id="jY0GuPQgjIEu2X1MpC6s-57" value="" style="endArrow=classic;html=1;rounded=0;" edge="1" parent="1">
          <mxGeometry width="50" height="50" relative="1" as="geometry">
            <mxPoint x="1330" as="sourcePoint" />
            <mxPoint x="1360" y="10" as="targetPoint" />
          </mxGeometry>
        </mxCell>
        <mxCell id="jY0GuPQgjIEu2X1MpC6s-58" value="&lt;span style=&quot;text-wrap-mode: nowrap;&quot;&gt;4.1.2: authenicate&amp;nbsp;&lt;/span&gt;&lt;div style=&quot;text-wrap-mode: nowrap;&quot;&gt;user identity&lt;/div&gt;" style="text;html=1;align=center;verticalAlign=middle;whiteSpace=wrap;rounded=0;" vertex="1" parent="1">
          <mxGeometry x="1340" y="-30" width="80" height="30" as="geometry" />
        </mxCell>
        <mxCell id="jY0GuPQgjIEu2X1MpC6s-59" value="" style="endArrow=none;html=1;rounded=0;entryX=1;entryY=0.5;entryDx=0;entryDy=0;edgeStyle=orthogonalEdgeStyle;curved=1;exitX=0.75;exitY=1;exitDx=0;exitDy=0;" edge="1" parent="1" source="jY0GuPQgjIEu2X1MpC6s-50" target="jY0GuPQgjIEu2X1MpC6s-50">
          <mxGeometry width="50" height="50" relative="1" as="geometry">
            <mxPoint x="1350" y="200" as="sourcePoint" />
            <mxPoint x="1400" y="150" as="targetPoint" />
            <Array as="points">
              <mxPoint x="1280" y="160" />
              <mxPoint x="1350" y="160" />
              <mxPoint x="1350" y="90" />
            </Array>
          </mxGeometry>
        </mxCell>
        <mxCell id="jY0GuPQgjIEu2X1MpC6s-60" value="" style="endArrow=classic;html=1;rounded=0;" edge="1" parent="1">
          <mxGeometry width="50" height="50" relative="1" as="geometry">
            <mxPoint x="1370" y="135" as="sourcePoint" />
            <mxPoint x="1360" y="165" as="targetPoint" />
          </mxGeometry>
        </mxCell>
        <mxCell id="jY0GuPQgjIEu2X1MpC6s-61" value="&lt;span style=&quot;text-wrap-mode: nowrap;&quot;&gt;4.1.3: delete user data&amp;nbsp;&lt;/span&gt;" style="text;html=1;align=center;verticalAlign=middle;whiteSpace=wrap;rounded=0;" vertex="1" parent="1">
          <mxGeometry x="1400" y="135" width="60" height="30" as="geometry" />
        </mxCell>
        <mxCell id="jY0GuPQgjIEu2X1MpC6s-62" value="" style="endArrow=none;html=1;rounded=0;entryX=0.5;entryY=1;entryDx=0;entryDy=0;edgeStyle=orthogonalEdgeStyle;curved=1;exitX=0;exitY=0.75;exitDx=0;exitDy=0;" edge="1" parent="1" source="jY0GuPQgjIEu2X1MpC6s-50" target="jY0GuPQgjIEu2X1MpC6s-50">
          <mxGeometry width="50" height="50" relative="1" as="geometry">
            <mxPoint x="1140" y="160" as="sourcePoint" />
            <mxPoint x="1320" y="190" as="targetPoint" />
            <Array as="points">
              <mxPoint x="1170" y="105" />
              <mxPoint x="1170" y="160" />
              <mxPoint x="1250" y="160" />
            </Array>
          </mxGeometry>
        </mxCell>
        <mxCell id="jY0GuPQgjIEu2X1MpC6s-63" value="" style="endArrow=classic;html=1;rounded=0;" edge="1" parent="1">
          <mxGeometry width="50" height="50" relative="1" as="geometry">
            <mxPoint x="1220" y="170" as="sourcePoint" />
            <mxPoint x="1170" y="170" as="targetPoint" />
          </mxGeometry>
        </mxCell>
        <mxCell id="jY0GuPQgjIEu2X1MpC6s-64" value="&lt;span style=&quot;text-wrap-mode: nowrap;&quot;&gt;4.1.4: remove&amp;nbsp;&lt;/span&gt;&lt;div style=&quot;text-wrap-mode: nowrap;&quot;&gt;related content&lt;/div&gt;" style="text;html=1;align=center;verticalAlign=middle;whiteSpace=wrap;rounded=0;" vertex="1" parent="1">
          <mxGeometry x="1170" y="180" width="60" height="30" as="geometry" />
        </mxCell>
        <mxCell id="jY0GuPQgjIEu2X1MpC6s-65" value="" style="endArrow=none;html=1;rounded=0;entryX=0;entryY=0.5;entryDx=0;entryDy=0;exitX=1;exitY=0.5;exitDx=0;exitDy=0;" edge="1" parent="1" source="jY0GuPQgjIEu2X1MpC6s-5" target="jY0GuPQgjIEu2X1MpC6s-50">
          <mxGeometry width="50" height="50" relative="1" as="geometry">
            <mxPoint x="1030" y="170" as="sourcePoint" />
            <mxPoint x="1080" y="120" as="targetPoint" />
          </mxGeometry>
        </mxCell>
        <mxCell id="jY0GuPQgjIEu2X1MpC6s-66" value="" style="endArrow=classic;html=1;rounded=0;" edge="1" parent="1">
          <mxGeometry width="50" height="50" relative="1" as="geometry">
            <mxPoint x="990" y="100" as="sourcePoint" />
            <mxPoint x="940" y="100" as="targetPoint" />
          </mxGeometry>
        </mxCell>
        <mxCell id="jY0GuPQgjIEu2X1MpC6s-67" value="&lt;span style=&quot;text-wrap-mode: nowrap;&quot;&gt;4.1.5: account deleted successfully&lt;/span&gt;" style="text;html=1;align=center;verticalAlign=middle;whiteSpace=wrap;rounded=0;" vertex="1" parent="1">
          <mxGeometry x="880" y="105" width="160" height="30" as="geometry" />
        </mxCell>
        <mxCell id="jY0GuPQgjIEu2X1MpC6s-68" value="" style="endArrow=none;html=1;rounded=0;entryX=0.75;entryY=1;entryDx=0;entryDy=0;exitX=-0.023;exitY=0.4;exitDx=0;exitDy=0;exitPerimeter=0;" edge="1" parent="1" source="jY0GuPQgjIEu2X1MpC6s-3" target="jY0GuPQgjIEu2X1MpC6s-1">
          <mxGeometry width="50" height="50" relative="1" as="geometry">
            <mxPoint x="160" y="290" as="sourcePoint" />
            <mxPoint x="210" y="240" as="targetPoint" />
          </mxGeometry>
        </mxCell>
        <mxCell id="jY0GuPQgjIEu2X1MpC6s-69" value="" style="endArrow=classic;html=1;rounded=0;" edge="1" parent="1">
          <mxGeometry width="50" height="50" relative="1" as="geometry">
            <mxPoint x="190" y="190" as="sourcePoint" />
            <mxPoint x="220" y="230" as="targetPoint" />
          </mxGeometry>
        </mxCell>
        <mxCell id="jY0GuPQgjIEu2X1MpC6s-70" value="&lt;span style=&quot;text-wrap-mode: nowrap;&quot;&gt;5.1.1: accept gift request (gift ID, request ID)&lt;/span&gt;" style="text;html=1;align=center;verticalAlign=middle;whiteSpace=wrap;rounded=0;" vertex="1" parent="1">
          <mxGeometry x="-20" y="200" width="220" height="30" as="geometry" />
        </mxCell>
        <mxCell id="jY0GuPQgjIEu2X1MpC6s-71" value="" style="endArrow=none;html=1;rounded=0;entryX=1;entryY=0.25;entryDx=0;entryDy=0;edgeStyle=orthogonalEdgeStyle;curved=1;exitX=1;exitY=0.75;exitDx=0;exitDy=0;" edge="1" parent="1" source="jY0GuPQgjIEu2X1MpC6s-3" target="jY0GuPQgjIEu2X1MpC6s-3">
          <mxGeometry width="50" height="50" relative="1" as="geometry">
            <mxPoint x="570" y="400" as="sourcePoint" />
            <mxPoint x="620" y="350" as="targetPoint" />
            <Array as="points">
              <mxPoint x="460" y="360" />
              <mxPoint x="550" y="360" />
              <mxPoint x="550" y="295" />
            </Array>
          </mxGeometry>
        </mxCell>
        <mxCell id="jY0GuPQgjIEu2X1MpC6s-72" value="" style="endArrow=classic;html=1;rounded=0;" edge="1" parent="1">
          <mxGeometry width="50" height="50" relative="1" as="geometry">
            <mxPoint x="560" y="310" as="sourcePoint" />
            <mxPoint x="560" y="350" as="targetPoint" />
          </mxGeometry>
        </mxCell>
        <mxCell id="jY0GuPQgjIEu2X1MpC6s-73" value="&lt;span style=&quot;text-wrap-mode: nowrap;&quot;&gt;5.1.2: process acceptance&lt;/span&gt;&lt;div style=&quot;text-wrap-mode: nowrap;&quot;&gt;(validation + update)&lt;/div&gt;" style="text;html=1;align=center;verticalAlign=middle;whiteSpace=wrap;rounded=0;" vertex="1" parent="1">
          <mxGeometry x="580" y="310" width="120" height="45" as="geometry" />
        </mxCell>
        <mxCell id="jY0GuPQgjIEu2X1MpC6s-74" value="" style="endArrow=none;html=1;rounded=0;entryX=0;entryY=0.5;entryDx=0;entryDy=0;edgeStyle=orthogonalEdgeStyle;curved=1;exitX=0;exitY=0.5;exitDx=0;exitDy=0;" edge="1" parent="1" source="jY0GuPQgjIEu2X1MpC6s-1" target="jY0GuPQgjIEu2X1MpC6s-3">
          <mxGeometry width="50" height="50" relative="1" as="geometry">
            <mxPoint x="-80" y="310" as="sourcePoint" />
            <mxPoint x="90" y="320" as="targetPoint" />
            <Array as="points">
              <mxPoint x="-80" y="90" />
              <mxPoint x="-80" y="380" />
              <mxPoint x="340" y="380" />
            </Array>
          </mxGeometry>
        </mxCell>
        <mxCell id="jY0GuPQgjIEu2X1MpC6s-75" value="" style="endArrow=classic;html=1;rounded=0;" edge="1" parent="1">
          <mxGeometry width="50" height="50" relative="1" as="geometry">
            <mxPoint x="20" y="390" as="sourcePoint" />
            <mxPoint x="-60" y="360" as="targetPoint" />
          </mxGeometry>
        </mxCell>
        <mxCell id="jY0GuPQgjIEu2X1MpC6s-76" value="&lt;span style=&quot;text-wrap-mode: nowrap;&quot;&gt;5.1.3: success confirmation&lt;/span&gt;" style="text;html=1;align=center;verticalAlign=middle;whiteSpace=wrap;rounded=0;" vertex="1" parent="1">
          <mxGeometry x="-120" y="380" width="110" height="30" as="geometry" />
        </mxCell>
      </root>
    </mxGraphModel>
  </diagram>
</mxfile>
